# xmcd CD database file
# Copyright (C) 1993-1996 Ti Kan
#
# Track frame offsets:
# 150
# 15748
# 27765
# 42533
# 57663
# 72308
# 86170
# 101993
# 117998
# 135255
# 151013
#
# Disc length: 2224 seconds
#
# Revision: 0
# Processed by: cddbd v1.4b41PL1 Copyright (c) Steve Scherf et al.
# Submitted via: inCDius 1.1b5
#
DISCID=9308ae0b
DTITLE=Ray Price - Hits On Monument
DYEAR=1900
DGENRE=
TTITLE0=Misty Morning Rain
TTITLE1=Feet
TTITLE2=Springfall
TTITLE3=If Its All The Same To You (I'll Be Leaving In The Morning)
TTITLE4=That's The Only Way To Say Good Morning
TTITLE5=Talk To Your Heart
TTITLE6=There's Always Me
TTITLE7=We Can't Build A Fire In The Rain
TTITLE8=All The Good Times Are Gone
TTITLE9=If You Were A Song
TTITLE10=Let's Make A Nice Memory (Today)
EXTD=
EXTT0=
EXTT1=
EXTT2=
EXTT3=
EXTT4=
EXTT5=
EXTT6=
EXTT7=
EXTT8=
EXTT9=
EXTT10=
PLAYORDER=
